<?xml version="1.0" encoding="UTF-8" standalone="no"?>
<!-- Created with Inkscape (http://www.inkscape.org/) -->
<svg
   xmlns:dc="http://purl.org/dc/elements/1.1/"
   xmlns:cc="http://creativecommons.org/ns#"
   xmlns:rdf="http://www.w3.org/1999/02/22-rdf-syntax-ns#"
   xmlns:svg="http://www.w3.org/2000/svg"
   xmlns="http://www.w3.org/2000/svg"
   xmlns:xlink="http://www.w3.org/1999/xlink"
   xmlns:sodipodi="http://sodipodi.sourceforge.net/DTD/sodipodi-0.dtd"
   xmlns:inkscape="http://www.inkscape.org/namespaces/inkscape"
   width="400"
   height="300.0"
   id="svg2"
   sodipodi:version="0.32"
   inkscape:version="0.45+devel"
   sodipodi:docname="audio-x-generic.svg"
   inkscape:output_extension="org.inkscape.output.svg.inkscape"
   inkscape:export-filename="/home/patrick/Projects/Icons/h-i-t/svg/audio-x-generic.png"
   inkscape:export-xdpi="90"
   inkscape:export-ydpi="90">
  <sodipodi:namedview
     id="base"
     pagecolor="#ffffff"
     bordercolor="#666666"
     borderopacity="1.0"
     inkscape:pageopacity="0.0"
     inkscape:pageshadow="2"
     inkscape:zoom="1"
     inkscape:cx="321.03082"
     inkscape:cy="230.39281"
     inkscape:document-units="px"
     inkscape:current-layer="g7996"
     showgrid="false"
     inkscape:window-width="1280"
     inkscape:window-height="945"
     inkscape:window-x="0"
     inkscape:window-y="25"
     showborder="true"
     inkscape:showpageshadow="false"
     showguides="true"
     inkscape:guide-bbox="true"
     inkscape:snap-global="false">
    <inkscape:grid
       type="xygrid"
       id="grid8000"
       empspacing="5"
       visible="true"
       enabled="true" />
  </sodipodi:namedview>
  <defs
     id="defs4">
    <inkscape:perspective
       sodipodi:type="inkscape:persp3d"
       inkscape:vp_x="0 : 150 : 1"
       inkscape:vp_y="0 : 1000 : 0"
       inkscape:vp_z="400 : 150 : 1"
       inkscape:persp3d-origin="200 : 150 : 1"
       id="perspective131" />
    <linearGradient
       inkscape:collect="always"
       id="linearGradient9079">
      <stop
         style="stop-color:#000000;stop-opacity:1;"
         offset="0"
         id="stop9081" />
      <stop
         style="stop-color:#000000;stop-opacity:0;"
         offset="1"
         id="stop9083" />
    </linearGradient>
    <linearGradient
       inkscape:collect="always"
       id="linearGradient9106">
      <stop
         style="stop-color:#000000;stop-opacity:1;"
         offset="0"
         id="stop9108" />
      <stop
         style="stop-color:#000000;stop-opacity:0;"
         offset="1"
         id="stop9110" />
    </linearGradient>
    <linearGradient
       inkscape:collect="always"
       id="linearGradient8935">
      <stop
         style="stop-color:#d59600;stop-opacity:1;"
         offset="0"
         id="stop8937" />
      <stop
         style="stop-color:#d59600;stop-opacity:0;"
         offset="1"
         id="stop8939" />
    </linearGradient>
    <linearGradient
       id="linearGradient8907">
      <stop
         style="stop-color:#ffb502;stop-opacity:1;"
         offset="0"
         id="stop8909" />
      <stop
         style="stop-color:#d59600;stop-opacity:1;"
         offset="1"
         id="stop8911" />
    </linearGradient>
    <linearGradient
       inkscape:collect="always"
       id="linearGradient8808">
      <stop
         style="stop-color:#ffffff;stop-opacity:1;"
         offset="0"
         id="stop8810" />
      <stop
         style="stop-color:#ffffff;stop-opacity:0;"
         offset="1"
         id="stop8812" />
    </linearGradient>
    <linearGradient
       id="linearGradient8793">
      <stop
         style="stop-color:#ffe792;stop-opacity:1"
         offset="0"
         id="stop8795" />
      <stop
         style="stop-color:#ffd543;stop-opacity:1;"
         offset="1"
         id="stop8797" />
    </linearGradient>
    <radialGradient
       inkscape:collect="always"
       xlink:href="#linearGradient8935"
       id="radialGradient9118"
       gradientUnits="userSpaceOnUse"
       gradientTransform="matrix(0.7003439,0.24190414,-0.15867166,0.50088282,95.811565,20.784496)"
       cx="332.65286"
       cy="69.070198"
       fx="332.65286"
       fy="69.070198"
       r="7.5034661" />
    <radialGradient
       inkscape:collect="always"
       xlink:href="#linearGradient8808"
       id="radialGradient9124"
       gradientUnits="userSpaceOnUse"
       gradientTransform="matrix(0.00379072,0.92982871,-1.0929456,0.00447106,400.26847,-143.55596)"
       cx="312.80582"
       cy="83.945343"
       fx="312.80582"
       fy="83.945343"
       r="8.1186056" />
    <linearGradient
       inkscape:collect="always"
       xlink:href="#linearGradient8808"
       id="linearGradient9127"
       gradientUnits="userSpaceOnUse"
       gradientTransform="matrix(0.68273219,0,0,0.68170041,96.169813,89.37742)"
       x1="315.99017"
       y1="84.02356"
       x2="319.37369"
       y2="90.475914" />
    <radialGradient
       inkscape:collect="always"
       xlink:href="#linearGradient8808"
       id="radialGradient9160"
       gradientUnits="userSpaceOnUse"
       gradientTransform="matrix(1.0444362,1.1642022,-0.44129903,0.38896063,6.2389102,-269.36772)"
       cx="322.67038"
       cy="60.644417"
       fx="322.67038"
       fy="60.644417"
       r="7.798615" />
    <linearGradient
       inkscape:collect="always"
       xlink:href="#linearGradient8808"
       id="linearGradient9162"
       gradientUnits="userSpaceOnUse"
       gradientTransform="matrix(0.64651404,0,0,0.64631583,107.58225,92.634562)"
       x1="320.15109"
       y1="68.022102"
       x2="320.90109"
       y2="85.031303" />
    <radialGradient
       inkscape:collect="always"
       xlink:href="#linearGradient8793"
       id="radialGradient9164"
       gradientUnits="userSpaceOnUse"
       gradientTransform="matrix(0.40961903,-0.40540884,0.31298155,0.30201612,154.53434,255.17454)"
       cx="315.28973"
       cy="89.387985"
       fx="315.28973"
       fy="89.387985"
       r="15.524081" />
    <radialGradient
       inkscape:collect="always"
       xlink:href="#linearGradient8907"
       id="radialGradient9166"
       gradientUnits="userSpaceOnUse"
       gradientTransform="matrix(-1.5153179,1.567856,-1.4186772,-1.6873859,986.04888,-149.00401)"
       cx="317.76862"
       cy="131.76735"
       fx="317.76862"
       fy="131.76735"
       r="10.425228" />
    <radialGradient
       inkscape:collect="always"
       xlink:href="#linearGradient9106"
       id="radialGradient9203"
       gradientUnits="userSpaceOnUse"
       gradientTransform="matrix(1,0,0,0.52727271,0,41.579368)"
       cx="338.88092"
       cy="87.956352"
       fx="338.88092"
       fy="87.956352"
       r="9.7227182" />
    <radialGradient
       inkscape:collect="always"
       xlink:href="#linearGradient8808"
       id="radialGradient9221"
       gradientUnits="userSpaceOnUse"
       gradientTransform="matrix(1.6329989,1.8364234,-0.68998077,0.61355017,-162.40652,-570.69124)"
       cx="322.67038"
       cy="60.644417"
       fx="322.67038"
       fy="60.644417"
       r="7.798615" />
    <radialGradient
       inkscape:collect="always"
       xlink:href="#linearGradient8935"
       id="radialGradient9224"
       gradientUnits="userSpaceOnUse"
       gradientTransform="matrix(0.5512467,-0.34930117,0.62988087,0.99404122,102.6017,115.96246)"
       cx="328.16656"
       cy="68.353394"
       fx="328.16656"
       fy="68.353394"
       r="7.5034661" />
    <linearGradient
       inkscape:collect="always"
       xlink:href="#linearGradient8808"
       id="linearGradient9227"
       gradientUnits="userSpaceOnUse"
       x1="320.15109"
       y1="68.022102"
       x2="320.90109"
       y2="85.031303" />
    <radialGradient
       inkscape:collect="always"
       xlink:href="#linearGradient8808"
       id="radialGradient9230"
       gradientUnits="userSpaceOnUse"
       gradientTransform="matrix(0.00569692,1.3988341,-1.6425452,0.00672627,448.7074,-352.74831)"
       cx="312.80582"
       cy="83.945343"
       fx="312.80582"
       fy="83.945343"
       r="8.1186056" />
    <linearGradient
       inkscape:collect="always"
       xlink:href="#linearGradient8808"
       id="linearGradient9233"
       gradientUnits="userSpaceOnUse"
       gradientTransform="matrix(1.0643725,0,0,1.0651816,-20.325465,-5.9121201)"
       x1="315.99017"
       y1="84.02356"
       x2="319.37369"
       y2="90.475914" />
    <radialGradient
       inkscape:collect="always"
       xlink:href="#linearGradient8793"
       id="radialGradient9236"
       gradientUnits="userSpaceOnUse"
       gradientTransform="matrix(0.63358102,-0.64165711,0.48410633,0.47801321,72.254856,255.19303)"
       cx="315.28973"
       cy="89.387985"
       fx="315.28973"
       fy="89.387985"
       r="15.524081" />
    <radialGradient
       inkscape:collect="always"
       xlink:href="#linearGradient8907"
       id="radialGradient9239"
       gradientUnits="userSpaceOnUse"
       gradientTransform="matrix(-1.5577387,1.6605528,-1.5230841,-1.4287813,917.36593,-402.36978)"
       cx="323.86612"
       cy="58.434784"
       fx="323.86612"
       fy="58.434784"
       r="16.054153" />
    <radialGradient
       inkscape:collect="always"
       xlink:href="#linearGradient9106"
       id="radialGradient9242"
       gradientUnits="userSpaceOnUse"
       gradientTransform="matrix(1,0,0,0.52727271,0,41.579368)"
       cx="338.88092"
       cy="87.956352"
       fx="338.88092"
       fy="87.956352"
       r="9.7227182" />
    <radialGradient
       inkscape:collect="always"
       xlink:href="#linearGradient8808"
       id="radialGradient9337"
       gradientUnits="userSpaceOnUse"
       gradientTransform="matrix(0.74084273,0.81429583,-0.3130236,0.27205671,92.711914,-98.743266)"
       cx="322.67038"
       cy="60.644417"
       fx="322.67038"
       fy="60.644417"
       r="7.798615" />
    <radialGradient
       inkscape:collect="always"
       xlink:href="#linearGradient8808"
       id="radialGradient9343"
       gradientUnits="userSpaceOnUse"
       gradientTransform="matrix(0.00268885,0.65036438,-0.77525157,0.00312726,371.83498,-10.558883)"
       cx="312.80582"
       cy="83.945343"
       fx="312.80582"
       fy="83.945343"
       r="8.1186056" />
    <linearGradient
       inkscape:collect="always"
       xlink:href="#linearGradient8808"
       id="linearGradient9346"
       gradientUnits="userSpaceOnUse"
       gradientTransform="matrix(0.45531152,0,0,0.4547692,165.25066,154.30506)"
       x1="315.99017"
       y1="84.02356"
       x2="319.37369"
       y2="90.475914" />
    <radialGradient
       inkscape:collect="always"
       xlink:href="#linearGradient8935"
       id="radialGradient9349"
       gradientUnits="userSpaceOnUse"
       gradientTransform="matrix(0.49677011,0.16919873,-0.11254948,0.35034017,156.60587,104.12312)"
       cx="332.19458"
       cy="69.796112"
       fx="332.19458"
       fy="69.796112"
       r="7.5034661" />
    <radialGradient
       inkscape:collect="always"
       xlink:href="#linearGradient8793"
       id="radialGradient9352"
       gradientUnits="userSpaceOnUse"
       gradientTransform="matrix(0.29177076,-0.28356132,0.22293609,0.21124376,197.0147,268.17663)"
       cx="315.28973"
       cy="89.387985"
       fx="315.28973"
       fy="89.387985"
       r="15.524081" />
    <radialGradient
       inkscape:collect="always"
       xlink:href="#linearGradient8907"
       id="radialGradient9354"
       gradientUnits="userSpaceOnUse"
       gradientTransform="matrix(-1.0793577,1.0966296,-1.0105207,-1.1802342,789.30074,-14.524176)"
       cx="317.76862"
       cy="131.76735"
       fx="317.76862"
       fy="131.76735"
       r="10.425228" />
    <radialGradient
       inkscape:collect="always"
       xlink:href="#linearGradient9106"
       id="radialGradient9357"
       gradientUnits="userSpaceOnUse"
       gradientTransform="matrix(1,0,0,0.52727271,0,41.579368)"
       cx="338.88092"
       cy="87.956352"
       fx="338.88092"
       fy="87.956352"
       r="9.7227182" />
    <linearGradient
       inkscape:collect="always"
       xlink:href="#linearGradient8808"
       id="linearGradient9393"
       x1="311.42694"
       y1="185.35849"
       x2="311.96121"
       y2="193.09247"
       gradientUnits="userSpaceOnUse"
       gradientTransform="translate(-0.01286526,-0.11159587)" />
    <radialGradient
       inkscape:collect="always"
       xlink:href="#linearGradient8808"
       id="radialGradient9441"
       gradientUnits="userSpaceOnUse"
       gradientTransform="matrix(0.5222961,0.58220022,-0.22068247,0.19451343,153.10692,23.021078)"
       cx="322.67038"
       cy="60.644417"
       fx="322.67038"
       fy="60.644417"
       r="7.798615" />
    <radialGradient
       inkscape:collect="always"
       xlink:href="#linearGradient8808"
       id="radialGradient9447"
       gradientUnits="userSpaceOnUse"
       gradientTransform="matrix(0.00177106,0.42260074,-0.5106348,0.00203207,346.98858,99.386003)"
       cx="312.80582"
       cy="83.945343"
       fx="312.80582"
       fy="83.945343"
       r="8.1186056" />
    <linearGradient
       inkscape:collect="always"
       xlink:href="#linearGradient8808"
       id="linearGradient9450"
       gradientUnits="userSpaceOnUse"
       gradientTransform="matrix(0.2947884,0,0,0.27304675,212.64976,208.58517)"
       x1="315.99017"
       y1="84.02356"
       x2="319.37369"
       y2="90.475914" />
    <radialGradient
       inkscape:collect="always"
       xlink:href="#linearGradient8935"
       id="radialGradient9453"
       gradientUnits="userSpaceOnUse"
       gradientTransform="matrix(0.35022425,0.12097267,-0.07934768,0.25048406,198.18461,167.97664)"
       cx="331.58786"
       cy="69.678223"
       fx="331.58786"
       fy="69.678223"
       r="7.5034661" />
    <radialGradient
       inkscape:collect="always"
       xlink:href="#linearGradient8793"
       id="radialGradient9456"
       gradientUnits="userSpaceOnUse"
       gradientTransform="matrix(0.20569916,-0.20273893,0.15717054,0.15103376,226.64066,285.3592)"
       cx="315.28973"
       cy="89.387985"
       fx="315.28973"
       fy="89.387985"
       r="15.524081" />
    <radialGradient
       inkscape:collect="always"
       xlink:href="#linearGradient8907"
       id="radialGradient9458"
       gradientUnits="userSpaceOnUse"
       gradientTransform="matrix(-0.76095006,0.78406148,-0.71241979,-0.84383658,644.2039,83.235524)"
       cx="317.76862"
       cy="131.76735"
       fx="317.76862"
       fy="131.76735"
       r="10.425228" />
    <linearGradient
       inkscape:collect="always"
       xlink:href="#linearGradient8808"
       id="linearGradient9462"
       gradientUnits="userSpaceOnUse"
       gradientTransform="matrix(0.70500267,0,0,0.71497384,87.868285,93.540142)"
       x1="311.42694"
       y1="185.35849"
       x2="311.96121"
       y2="193.09247" />
    <radialGradient
       inkscape:collect="always"
       xlink:href="#linearGradient8793"
       id="radialGradient9522"
       gradientUnits="userSpaceOnUse"
       gradientTransform="matrix(3.3006729,-3.3606293,2.5219768,2.5035571,-1157.8293,1104.7612)"
       cx="315.28973"
       cy="89.387985"
       fx="315.28973"
       fy="89.387985"
       r="15.524081" />
    <filter
       inkscape:collect="always"
       id="filter8873">
      <feGaussianBlur
         inkscape:collect="always"
         stdDeviation="0.95636839"
         id="feGaussianBlur8875" />
    </filter>
    <mask
       maskUnits="userSpaceOnUse"
       id="mask8879">
      <path
         sodipodi:nodetypes="cccssssssssscsssscscsscccc"
         id="path8881"
         d="m 154.28125,44.005684 c -0.27049,0.05776 -0.51413,0.232542 -0.65625,0.470792 -50.63626,79.905434 -12.0215,125.867944 -11.46875,162.768344 -10.54826,-5.1507 -24.45983,-5.74986 -38.71875,-2.44812 -12.940552,2.99646 -23.727107,9.13257 -30.75,16.91712 -7.022893,7.78454 -10.274977,17.28557 -7.90625,26.70957 2.370468,9.43091 9.907404,16.6501 20,20.74622 10.092596,4.09611 22.76449,5.10249 35.71875,2.10287 12.22188,-2.83006 22.02708,-7.95411 28.84375,-15.03395 6.81667,-7.07984 10.60708,-16.09329 10.78125,-26.55264 1.6e-4,-0.0104 1.6e-4,-0.0209 0,-0.0313 -0.0105,-31.19943 -8.6811,-51.51006 -14.9375,-71.49755 -5.87665,-18.77426 -9.52895,-37.36767 -2.25,-64.843693 0.46142,2.144068 1.16396,4.076482 2.21875,5.680885 1.8951,2.882578 4.64695,4.909028 7.90625,6.591078 6.51859,3.3641 15.14071,5.38073 24.09375,9.50999 8.95304,4.12927 18.21143,10.33095 26.0625,22.09582 7.85107,11.76487 14.28294,29.12825 17.3125,55.55341 0.0906,0.48026 0.5694,0.85384 1.05514,0.82335 0.48575,-0.0304 0.91446,-0.46104 0.94486,-0.94889 0.14624,-57.59308 -21.07504,-81.79128 -39.46875,-97.861932 -9.19686,-8.035325 -17.62861,-14.089866 -22.3125,-21.185622 -4.68389,-7.095756 -5.86978,-15.222435 -0.53125,-28.153337 0.23578,-0.610489 -0.33241,-1.409797 -0.9375,-1.380988 l -4.8125,-0.03139 c -0.0623,-0.0058 -0.12518,-0.0058 -0.1875,0 z"
         style="fill:#ffffff;fill-opacity:1;fill-rule:nonzero;stroke:none" />
    </mask>
    <radialGradient
       inkscape:collect="always"
       xlink:href="#linearGradient8793"
       id="radialGradient8956"
       gradientUnits="userSpaceOnUse"
       gradientTransform="matrix(3.3006729,-3.3606293,2.5219768,2.5035571,-1157.8293,1104.7612)"
       cx="315.28973"
       cy="89.387985"
       fx="315.28973"
       fy="89.387985"
       r="15.524081" />
    <radialGradient
       inkscape:collect="always"
       xlink:href="#linearGradient8793"
       id="radialGradient9001"
       gradientUnits="userSpaceOnUse"
       gradientTransform="matrix(3.3006729,-3.3606293,2.5219768,2.5035571,-1157.8293,1104.7612)"
       cx="315.28973"
       cy="89.387985"
       fx="315.28973"
       fy="89.387985"
       r="15.524081" />
    <linearGradient
       inkscape:collect="always"
       xlink:href="#linearGradient8808"
       id="linearGradient9020"
       gradientUnits="userSpaceOnUse"
       x1="158.20987"
       y1="232.96875"
       x2="125.14603"
       y2="267.96689" />
    <linearGradient
       inkscape:collect="always"
       xlink:href="#linearGradient8808"
       id="linearGradient9023"
       gradientUnits="userSpaceOnUse"
       x1="143.67641"
       y1="94.741791"
       x2="167.03708"
       y2="112.86679" />
    <linearGradient
       inkscape:collect="always"
       xlink:href="#linearGradient8808"
       id="linearGradient9026"
       gradientUnits="userSpaceOnUse"
       x1="146.95631"
       y1="125.12481"
       x2="148.11246"
       y2="186.51028" />
    <radialGradient
       inkscape:collect="always"
       xlink:href="#linearGradient8808"
       id="radialGradient9029"
       gradientUnits="userSpaceOnUse"
       gradientTransform="matrix(8.5071917,9.6181251,-3.5944903,3.2134214,-2380.075,-3220.9732)"
       cx="322.67038"
       cy="60.644417"
       fx="322.67038"
       fy="60.644417"
       r="7.798615" />
    <radialGradient
       inkscape:collect="always"
       xlink:href="#linearGradient8935"
       id="radialGradient9032"
       gradientUnits="userSpaceOnUse"
       gradientTransform="matrix(2.871748,-1.8294378,3.2813968,5.2062138,-1000.4386,376.25976)"
       cx="329.35059"
       cy="69.041092"
       fx="329.35059"
       fy="69.041092"
       r="7.5034661" />
    <linearGradient
       inkscape:collect="always"
       xlink:href="#linearGradient8808"
       id="linearGradient9035"
       gradientUnits="userSpaceOnUse"
       gradientTransform="matrix(5.2095514,0,0,5.2374224,-1534.0099,-232.02213)"
       x1="320.15109"
       y1="68.022102"
       x2="320.90109"
       y2="85.031303" />
    <linearGradient
       inkscape:collect="always"
       xlink:href="#linearGradient8808"
       id="linearGradient9038"
       gradientUnits="userSpaceOnUse"
       gradientTransform="matrix(5.7683906,0,0,6.0832549,-1711.0565,-307.48017)"
       x1="315.99017"
       y1="84.02356"
       x2="319.37369"
       y2="90.475914" />
    <radialGradient
       inkscape:collect="always"
       xlink:href="#linearGradient8808"
       id="radialGradient9041"
       gradientUnits="userSpaceOnUse"
       gradientTransform="matrix(0.02953183,7.326285,-8.5146652,0.03522832,799.73084,-2079.0721)"
       cx="312.80582"
       cy="83.945343"
       fx="312.80582"
       fy="83.945343"
       r="8.1186056" />
    <filter
       inkscape:collect="always"
       id="filter9047"
       x="-0.073792513"
       width="1.147585"
       y="-0.13732825"
       height="1.2746565">
      <feGaussianBlur
         inkscape:collect="always"
         stdDeviation="4.8739246"
         id="feGaussianBlur9049" />
    </filter>
    <linearGradient
       inkscape:collect="always"
       xlink:href="#linearGradient9106"
       id="linearGradient9071"
       x1="145.78981"
       y1="280.21918"
       x2="145.57542"
       y2="290.44489"
       gradientUnits="userSpaceOnUse"
       gradientTransform="matrix(1,0,0.59916922,1,-163.27366,-7.0710678)" />
    <radialGradient
       inkscape:collect="always"
       xlink:href="#linearGradient9079"
       id="radialGradient9085"
       cx="120.29205"
       cy="250.01515"
       fx="120.29205"
       fy="250.01515"
       r="63.155367"
       gradientTransform="matrix(6.5999493e-4,0.30100286,-1.8414309,0.00403764,580.59829,227.67232)"
       gradientUnits="userSpaceOnUse" />
  </defs>
  <metadata
     id="metadata7">
    <rdf:RDF>
      <cc:Work
         rdf:about="">
        <dc:format>image/svg+xml</dc:format>
        <dc:type
           rdf:resource="http://purl.org/dc/dcmitype/StillImage" />
      </cc:Work>
    </rdf:RDF>
  </metadata>
  <g
     id="g7996"
     inkscape:groupmode="layer"
     style="display:inline"
     inkscape:label="audio-x-generic">
    <g
       id="g7998"
       inkscape:groupmode="layer"
       style="display:none"
       inkscape:label="plate 0"
       sodipodi:insensitive="true">
      <rect
         id="rect8000"
         x="20"
         y="30"
         inkscape:label="256x256"
         height="256"
         width="256"
         style="opacity:1;fill:#eeeeec;fill-opacity:1;fill-rule:nonzero;stroke:none;visibility:visible;display:inline;enable-background:accumulate" />
      <rect
         id="rect8002"
         x="300"
         y="50"
         inkscape:label="48x48"
         height="48"
         width="48"
         style="opacity:1;fill:#eeeeec;fill-opacity:1;fill-rule:nonzero;stroke:none;visibility:visible;display:inline;enable-background:accumulate" />
      <rect
         id="rect8004"
         x="300"
         y="125"
         inkscape:label="32x32"
         height="32"
         width="32"
         style="opacity:1;fill:#eeeeec;fill-opacity:1;fill-rule:nonzero;stroke:none;visibility:visible;display:inline;enable-background:accumulate" />
      <rect
         id="rect8006"
         x="300"
         y="176"
         inkscape:label="24x24"
         height="24"
         width="24"
         style="opacity:1;fill:#eeeeec;fill-opacity:1;fill-rule:nonzero;stroke:none;visibility:visible;display:inline;enable-background:accumulate" />
      <rect
         id="rect8008"
         x="301"
         y="177"
         inkscape:label="22x22"
         height="22"
         width="22"
         style="opacity:1;fill:#eeeeec;fill-opacity:1;fill-rule:nonzero;stroke:none;visibility:visible;display:inline;enable-background:accumulate" />
      <rect
         id="rect8010"
         x="300"
         y="220"
         inkscape:label="16x16"
         height="16"
         width="16"
         style="opacity:1;fill:#eeeeec;fill-opacity:1;fill-rule:nonzero;stroke:none;visibility:visible;display:inline;enable-background:accumulate" />
      <text
         id="text8012"
         x="20"
         style="font-size:18px;font-style:normal;font-weight:normal;fill:#000000;fill-opacity:1;stroke:none;display:inline;enable-background:new;font-family:Bitstream Vera Sans"
         inkscape:label="context"
         y="20">
        <tspan
           id="tspan8014">mimetypes</tspan>
      </text>
      <text
         id="text8016"
         x="200"
         style="font-size:18px;font-style:normal;font-weight:normal;fill:#000000;fill-opacity:1;stroke:none;display:inline;enable-background:new;font-family:Bitstream Vera Sans"
         inkscape:label="icon-name"
         y="20">
        <tspan
           id="tspan8018">audio-x-generic</tspan>
      </text>
    </g>
    <g
       id="g9244">
      <path
         transform="matrix(1.22539,0,0,1,-95.582877,4.9552595)"
         d="m 348.60364,87.956352 a 9.7227182,5.126524 0 1 1 -19.44544,0 9.7227182,5.126524 0 1 1 19.44544,0 z"
         sodipodi:ry="5.126524"
         sodipodi:rx="9.7227182"
         sodipodi:cy="87.956352"
         sodipodi:cx="338.88092"
         id="path9096"
         style="opacity:0.3;fill:url(#radialGradient9203);fill-opacity:1;fill-rule:nonzero;stroke:none"
         sodipodi:type="arc" />
      <path
         sodipodi:nodetypes="cscssssssssscccccccc"
         id="path8841"
         d="m 324,51.9375 c -0.33007,0.02213 -0.63262,0.222373 -0.8125,0.5 -9.43909,14.568075 -3.11038,23.701579 -2.4375,30.15625 -1.9954,-0.608289 -4.21526,-0.788282 -6.5625,-0.25 -2.63158,0.603487 -4.85708,1.851439 -6.34375,3.5 -1.48667,1.648561 -2.2509,3.778253 -1.71875,5.875 0.5334,2.101683 2.22613,3.676802 4.34375,4.53125 2.11762,0.854448 4.70158,1.043416 7.34375,0.4375 2.46674,-0.565685 4.50386,-1.597957 5.9375,-3.09375 1.43364,-1.495793 2.24465,-3.447996 2.28125,-5.625 1.6e-4,-0.01042 1.6e-4,-0.02083 0,-0.03125 -0.002,-6.085203 -1.70532,-10.105142 -2.875,-13.84375 -0.95319,-3.046649 -1.39219,-5.507525 -0.65625,-9.516085 6.41316,3.370092 10.73463,1.3355 14.55714,17.578585 C 339.83418,69.394322 332.29181,63.279435 326,57.9375 c -0.76924,-1.136727 -0.98957,-2.23239 -0.0312,-4.53125 0.27033,-0.611052 -0.23836,-1.417939 -0.90625,-1.4375 L 324.0938,51.9375 c -0.0312,-0.0014 -0.0625,-0.0014 -0.0937,0 l -10e-5,0 z"
         style="fill:url(#radialGradient9239);fill-opacity:1;fill-rule:nonzero;stroke:none" />
      <path
         sodipodi:nodetypes="ccssscccccc"
         id="path7998"
         d="M 324.06066,52.977903 C 314.24427,68.319189 322.1119,76.787649 322,83.993974 c -1.99497,-1.081935 -4.75898,-1.303727 -7.59375,-0.653643 -4.90059,1.123827 -8.1551,4.686456 -7.28125,8.129577 0.87385,3.443119 5.56816,5.329039 10.46875,4.205212 4.63652,-1.06327 7.34088,-3.837368 7.40625,-7.725131 -0.004,-11.79064 -6.57182,-15.302241 -2.974,-26.984427 -0.16559,6.999983 12.66921,-0.234608 15.0052,19.944589 C 337.0871,59.107367 320.87067,62.980474 325.0312,53 l -0.97054,-0.0221 0,3e-6 z"
         style="fill:url(#radialGradient9236);fill-opacity:1;fill-rule:nonzero;stroke:none" />
      <path
         id="path8805"
         d="m 318.61065,83.596426 c -1.26075,-0.106639 -2.65461,-0.02248 -4.05792,0.299581 -2.41949,0.555271 -4.39596,1.735969 -5.62123,3.095684 -1.22525,1.359717 -1.69647,2.817443 -1.33046,4.260727 0.36472,1.438144 1.53991,2.640684 3.32616,3.36198 1.78627,0.721295 4.14408,0.918899 6.55255,0.366156 2.31307,-0.530849 4.0535,-1.476069 5.22207,-2.696241 1.16858,-1.220173 1.79869,-2.732355 1.8294,-4.560309 0.009,-0.639265 -0.29714,-1.244503 -0.83154,-1.83078 -0.53441,-0.586279 -1.26712,-1.070802 -1.8294,-1.398052 -0.90716,-0.492358 -2.0003,-0.792228 -3.25963,-0.898746 z"
         style="opacity:0.5;fill:none;stroke:url(#linearGradient9233);stroke-width:0.99999994;stroke-opacity:1" />
      <path
         sodipodi:nodetypes="cssscssssscsc"
         id="path8818"
         d="m 316.54665,83 c -0.70463,0.0497 -1.42368,0.164738 -2.14892,0.331511 -2.50444,0.575908 -4.54499,1.79585 -5.85167,3.248812 -1.29988,1.445367 -1.85896,3.110565 -1.45466,4.740613 0.0657,0.264859 0.33679,0.434368 0.59508,0.397814 3.13228,-0.380958 5.12619,-0.803709 6.51289,-1.259743 1.3867,-0.456035 2.1658,-0.942859 2.81012,-1.425499 0.64434,-0.482641 1.13242,-0.92581 2.04976,-1.359197 0.91734,-0.433387 2.29317,-0.87415 4.6615,-1.292895 0.37574,-0.06951 0.55654,-0.613418 0.29754,-0.89508 -0.59662,-0.655844 -1.3678,-1.151961 -1.95055,-1.491802 -0.98032,-0.533114 -2.1613,-0.850356 -3.47134,-0.961383 -0.65494,-0.0555 -1.34512,-0.08285 -2.04975,-0.03315 z"
         style="opacity:0.5;fill:url(#radialGradient9230);fill-opacity:1;stroke:none" />
      <path
         id="path8915"
         d="m 324.0625,52.96875 c 0.62616,84.9128 0.36721,62.89703 0,0 z m 0,0 c -9.80239,14.564751 -1.95179,24.27054 -2.03125,31.5625 l 1,0 c 0.0666,-6.111428 -4.1104,-12.741999 -1.96875,-22.03125 0.19293,-2.23317 0.58154,-5.41437 3,-9.53125 z"
         style="opacity:0.5;fill:url(#linearGradient9227);fill-opacity:1;stroke:none"
         sodipodi:nodetypes="ccccccc" />
      <path
         style="fill:url(#radialGradient9224);fill-opacity:1;fill-rule:nonzero;stroke:none"
         d="m 324.06066,52.977903 c -2.41846,4.11688 -1.84173,5.754489 -2.03466,7.987659 -0.16559,6.999983 12.66921,-0.234608 15.0052,19.944589 C 337.0871,59.107367 320.87067,62.980474 325.0312,53 l -0.97054,-0.0221 0,3e-6 z"
         id="path8925"
         sodipodi:nodetypes="cccccc" />
      <path
         sodipodi:nodetypes="cccccc"
         id="path8943"
         d="m 324.0625,52.96875 c -2.41846,4.11688 -2.8106,7.291529 -3.00353,9.524699 0.31642,-0.708498 0.63028,-0.995254 1.00348,-1.087199 6.46527,-1.241381 13.22917,9.372213 14.59375,14.03125 C 334.2338,59.726767 321.26077,62.044805 325.03125,53 l -0.96875,-0.03125 z"
         style="opacity:0.5;fill:url(#radialGradient9221);fill-opacity:1;fill-rule:nonzero;stroke:none" />
    </g>
    <g
       id="g9295">
      <path
         sodipodi:type="arc"
         style="opacity:0.3;fill:url(#radialGradient9242);fill-opacity:1;fill-rule:nonzero;stroke:none"
         id="path9199"
         sodipodi:cx="338.88092"
         sodipodi:cy="87.956352"
         sodipodi:rx="9.7227182"
         sodipodi:ry="5.126524"
         d="m 348.60364,87.956352 a 9.7227182,5.126524 0 1 1 -19.44544,0 9.7227182,5.126524 0 1 1 19.44544,0 z"
         transform="matrix(0.92660324,0,0,0.75617007,0.01523676,86.714152)" />
      <path
         sodipodi:nodetypes="csssssscccccccccccc"
         id="path9143"
         d="m 315.00593,145.84891 c -1.25289,-0.33168 -2.61989,-0.42621 -4.0675,-0.10173 -1.70845,0.38288 -3.16666,1.16733 -4.15924,2.23916 -0.99258,1.07184 -1.53668,2.52728 -1.16214,3.96943 0.3753,1.44514 1.52398,2.46957 2.90535,3.01948 1.38136,0.54992 3.05348,0.65631 4.7709,0.27142 1.60018,-0.35863 2.92463,-0.99675 3.88399,-1.96776 0.95937,-0.97099 1.3137,-2.28778 1.33875,-3.74376 0.0781,-6.03185 -4.34987,-8.75643 -2.58411,-17.4498 0.243,3.85844 7.42617,1.13556 10.55806,12.6959 0.33412,-7.27634 -3.99387,-11.71309 -7.82977,-15.37157 -1.23708,-1.35144 0.62733,-2.88276 -0.19496,-3.58202 -0.3666,-0.40566 -0.93656,-0.37325 -1.2648,-0.2091 -5.74746,8.22803 -3.5598,13.46283 -2.19453,20.23036 l 0,-1e-5 0,0 0,0 0,0 0,0 z"
         style="fill:url(#radialGradient9164);fill-opacity:1;fill-rule:nonzero;stroke:url(#radialGradient9166);stroke-width:1;stroke-linecap:round;stroke-linejoin:round;stroke-opacity:1" />
      <path
         sodipodi:nodetypes="ccccccccc"
         id="path9048"
         d="m 317.35145,126.8197 c -1.56357,2.60111 -0.85925,3.48109 -0.98397,4.89203 -0.0187,3.60355 5.24967,1.13812 9.45799,9.41933 -2.12941,-11.12368 -8.30458,-8.30094 -7.84655,-14.29741 l -0.62747,-0.014 0,0 0,5e-5 0,0 0,0 z"
         style="fill:url(#radialGradient9118);fill-opacity:1;fill-rule:nonzero;stroke:none" />
      <path
         style="opacity:0.5;fill:none;stroke:url(#linearGradient9127);stroke-width:0.99999982;stroke-opacity:1"
         d="m 313.57734,146.66156 c -0.8087,-0.0683 -1.70278,-0.0144 -2.60293,0.19172 -1.55194,0.35537 -2.81973,1.111 -3.60567,1.9812 -0.78593,0.87019 -1.08819,1.80313 -0.85341,2.7268 0.23393,0.92039 0.98776,1.68999 2.13354,2.15162 1.14578,0.46162 2.65818,0.58807 4.20308,0.23433 1.48369,-0.33973 2.60007,-0.94465 3.34964,-1.72556 0.74958,-0.78089 1.15374,-1.74866 1.17345,-2.91852 0.006,-0.40911 -0.1906,-0.79647 -0.53339,-1.17167 -0.3428,-0.37521 -0.81277,-0.6853 -1.17345,-0.89473 -0.58188,-0.3151 -1.28307,-0.50702 -2.09086,-0.57519 z"
         id="path9042" />
      <path
         style="opacity:0.5;fill:url(#radialGradient9124);fill-opacity:1;stroke:none"
         d="m 312.32903,146.09332 c -0.46885,0.033 -0.94732,0.10954 -1.42989,0.22037 -1.66643,0.38281 -3.02423,1.19371 -3.89368,2.15954 -0.86493,0.96075 -1.23695,2.06763 -0.96793,3.15116 0.0438,0.17605 0.2241,0.28872 0.39595,0.26443 2.08421,-0.25322 3.41097,-0.53424 4.33368,-0.83738 0.9227,-0.30313 1.44111,-0.62672 1.86985,-0.94755 0.42873,-0.32081 0.7535,-0.61539 1.3639,-0.90348 0.6104,-0.28808 1.52585,-0.58106 3.10174,-0.85941 0.25003,-0.0461 0.37033,-0.40774 0.19799,-0.59498 -0.39699,-0.43594 -0.91013,-0.76573 -1.29789,-0.99163 -0.6523,-0.35435 -1.43813,-0.56524 -2.30982,-0.63904 -0.43581,-0.0369 -0.89505,-0.0551 -1.3639,-0.022 z"
         id="path9044"
         sodipodi:nodetypes="cssscssssscsc" />
      <path
         sodipodi:nodetypes="csssssssccssssssssccc"
         id="path9150"
         d="m 316.75,127.15625 c -5.64456,8.97985 -1.07592,15.62238 -1.125,20.125 9.6e-4,0.0117 9.6e-4,0.0196 0,0.0312 9.6e-4,0.0118 9.6e-4,0.0196 0,0.0312 0.0114,0.0104 0.0224,0.018 0.0312,0.0312 0.0115,0.0104 0.0224,0.0179 0.0312,0.0312 0.0115,0.0104 0.0224,0.0179 0.0312,0.0312 0.0105,-0.001 0.0211,-0.001 0.0312,0 0.0105,-0.001 0.0211,-0.001 0.0312,0 l 0.625,0 c 0.0105,-0.001 0.0211,-0.001 0.0312,0 0.0105,-0.001 0.0211,-0.001 0.0312,0 0.008,-0.0133 0.0197,-0.0212 0.0312,-0.0312 0.008,-0.0133 0.0197,-0.0212 0.0312,-0.0312 0.008,-0.0133 0.0197,-0.0212 0.0312,-0.0312 -9.4e-4,-0.0118 -9.4e-4,-0.0196 0,-0.0312 -9.4e-4,-0.0118 -9.4e-4,-0.0196 0,-0.0312 0.0222,-2.02522 -0.63579,-4.1343 -1.125,-6.4375 -0.48923,-2.3032 -0.80806,-4.81948 -0.125,-7.78125 0.0254,-0.29394 0.10149,-0.68016 0.15625,-1.03125 0.10426,-1.19635 0.28981,-2.82593 1.28125,-4.875 z"
         style="opacity:0.50000000000000000;fill:url(#linearGradient9162);fill-opacity:1;stroke:none" />
      <path
         style="opacity:0.5;fill:url(#radialGradient9160);fill-opacity:1;fill-rule:nonzero;stroke:none"
         d="m 317.37558,126.00205 c -1.5468,2.6099 -1.79761,4.62247 -1.92099,6.03819 0.20236,-0.44915 0.40309,-0.63095 0.6418,-0.68923 4.13506,-0.78697 8.81468,6.84751 9.68744,9.8011 -3.38338,-11.7276 -9.95712,-9.72774 -7.52349,-14.7325 l -0.88476,-0.41755 0,-1e-5 0,0 z"
         id="path9050"
         sodipodi:nodetypes="cccccccc" />
    </g>
    <g
       id="g9399">
      <path
         transform="matrix(0.66529639,0,0,0.48727717,85.058683,153.62914)"
         d="m 348.60364,87.956352 a 9.7227182,5.126524 0 1 1 -19.44544,0 9.7227182,5.126524 0 1 1 19.44544,0 z"
         sodipodi:ry="5.126524"
         sodipodi:rx="9.7227182"
         sodipodi:cy="87.956352"
         sodipodi:cx="338.88092"
         id="path9306"
         style="opacity:0.3;fill:url(#radialGradient9357);fill-opacity:1;fill-rule:nonzero;stroke:none"
         sodipodi:type="arc" />
      <path
         style="fill:url(#radialGradient9352);fill-opacity:1;fill-rule:nonzero;stroke:url(#radialGradient9354);stroke-width:1;stroke-linecap:round;stroke-linejoin:round;stroke-opacity:1"
         d="m 311.31828,191.70932 c -0.89244,-0.23199 -1.86615,-0.2981 -2.89727,-0.0711 -1.21693,0.2678 -2.25561,0.81648 -2.96263,1.56617 -0.70701,0.7497 -1.09457,1.76769 -0.82778,2.7764 0.26732,1.0108 1.08552,1.72733 2.06947,2.11196 0.98394,0.38464 2.40627,0.47712 3.6483,0.31484 1.2023,-0.15709 2.33321,-0.63467 3.01656,-1.31384 0.68336,-0.67915 1.09199,-1.75643 1.10984,-2.7748 0.0556,-4.21896 -3.18143,-5.76022 -1.87191,-12.23643 0.17309,2.69876 5.599,0.97104 7.87404,8.8359 -0.24815,-5.33248 -3.19838,-8.14848 -5.93068,-10.70739 -0.88117,-0.94525 0.44684,-2.01633 -0.13887,-2.50543 -0.26113,-0.28373 -0.66711,-0.26106 -0.90091,-0.14625 -4.09391,5.75506 -3.16064,9.41652 -2.18816,14.15003 l 0,0 0,0 0,0 0,0 0,0 0,-6e-5 0,0 0,0 0,0 0,0 0,0 0,0 0,0 z"
         id="path9308"
         sodipodi:nodetypes="csssssscccccccccccccccccccc" />
      <path
         style="fill:url(#radialGradient9349);fill-opacity:1;fill-rule:nonzero;stroke:none"
         d="m 313.74923,178.28895 c -1.10908,1.81934 -0.60949,2.43483 -0.69795,3.42171 -0.0133,2.52048 3.72371,0.79605 6.70877,6.5883 -1.51044,-7.78041 -5.89063,-5.80605 -5.56574,-10.00025 l -0.44508,-0.0103 0,0 0,4e-5 0,0 0,0 z"
         id="path9310"
         sodipodi:nodetypes="ccccccccc" />
      <path
         id="path9312"
         d="m 310.23892,192.51989 c -0.53931,-0.0456 -1.13558,-0.01 -1.73588,0.12789 -1.03499,0.23707 -1.88047,0.74117 -2.40461,1.32169 -0.52414,0.58051 -0.72571,1.20288 -0.56914,1.81907 0.15601,0.61401 0.65874,1.12741 1.42286,1.43536 0.76411,0.30796 1.77272,0.39232 2.80301,0.15633 0.98946,-0.22663 1.73397,-0.63019 2.23386,-1.15114 0.4999,-0.52094 0.76943,-1.16654 0.78257,-1.94698 0.004,-0.27292 -0.12712,-0.53133 -0.35571,-0.78163 -0.22861,-0.2503 -0.54203,-0.45717 -0.78258,-0.59688 -0.38805,-0.2102 -0.85567,-0.33823 -1.39438,-0.38371 z"
         style="opacity:0.5;fill:none;stroke:url(#linearGradient9346);stroke-width:0.99999988;stroke-opacity:1" />
      <path
         sodipodi:nodetypes="cssscssssscsc"
         id="path9314"
         d="m 309.4575,192.03496 c -0.33257,0.0231 -0.67196,0.0767 -1.01425,0.15414 -1.18204,0.26775 -2.14516,0.83493 -2.76188,1.51048 -0.61352,0.67199 -0.8774,1.44619 -0.68658,2.20407 0.0311,0.12313 0.15896,0.20194 0.28086,0.18495 1.47838,-0.17711 2.41948,-0.37368 3.07398,-0.58571 0.65449,-0.21202 1.02221,-0.43835 1.32633,-0.66275 0.30411,-0.22439 0.53447,-0.43043 0.96744,-0.63194 0.43297,-0.20149 1.08232,-0.40642 2.20014,-0.60111 0.17735,-0.0323 0.26268,-0.28519 0.14044,-0.41615 -0.2816,-0.30492 -0.64558,-0.53559 -0.92063,-0.69359 -0.46269,-0.24785 -1.02009,-0.39536 -1.6384,-0.44698 -0.30913,-0.0258 -0.63488,-0.0385 -0.96745,-0.0154 z"
         style="opacity:0.5;fill:url(#radialGradient9343);fill-opacity:1;stroke:none" />
      <path
         sodipodi:nodetypes="csssssssscccc"
         id="path9359"
         d="m 311.01839,184.79466 c -0.005,0.0532 -0.0276,0.10325 -0.0312,0.15625 -0.0177,0.46506 -0.0223,0.94222 0,1.4375 0.002,0.0415 -0.002,0.0835 0,0.125 0.0154,0.29872 0.0632,0.59625 0.0937,0.90625 0.0326,0.28953 0.0484,0.5817 0.0937,0.875 0.0612,0.43737 0.12726,0.85307 0.21875,1.3125 0.006,0.0324 0.0249,0.0614 0.0312,0.0937 0.0184,0.0906 0.0429,0.18975 0.0625,0.28125 0.13978,0.65243 0.29683,1.33348 0.5,2.03125 l 0.9375,-0.25 c -1.0648,-3.57832 -1.54901,-6.95012 -0.59906,-11.2721 -0.71799,1.35059 -1.09696,2.80877 -1.30709,4.3034 z"
         style="opacity:0.50000000000000000;fill:url(#linearGradient9393);fill-opacity:1;stroke:none" />
      <path
         sodipodi:nodetypes="ccccccc"
         id="path9318"
         d="m 312.04574,182.01968 c 0.14354,-0.31416 0.28592,-0.37504 0.45525,-0.4158 2.93309,-0.55044 5.74422,3.60727 6.60635,5.62895 -2.9148,-7.0074 -6.43604,-5.67563 -5.07141,-9.14448 l -0.22996,-0.10702 c -0.73683,1.44422 -1.39441,1.45066 -1.76023,4.03835 l 0,0 z"
         style="opacity:0.5;fill:url(#radialGradient9337);fill-opacity:1;fill-rule:nonzero;stroke:none" />
    </g>
    <g
       id="g9464">
      <path
         sodipodi:nodetypes="cssssssccccccccccccccccccccccccccccc"
         id="path9412"
         d="m 307.22499,230.68708 c -0.62917,-0.16587 -1.31564,-0.21314 -2.04258,-0.0508 -0.85794,0.19147 -1.59021,0.58377 -2.08866,1.11977 -0.49845,0.53602 -0.77168,1.26386 -0.58359,1.98506 0.18846,0.72269 0.76529,1.23499 1.45898,1.50999 0.69368,0.27501 1.69643,0.34113 2.57206,0.22511 0.84763,-0.11232 1.64492,-0.45378 2.12668,-0.93936 0.48177,-0.48558 0.83615,-1.27791 0.84873,-2.00601 0.0392,-3.01645 -3.26029,-4.59762 -1.49537,-8.82038 0.12203,1.92954 3.87991,0.78802 5.48382,6.41119 -0.17494,-3.81259 -2.07808,-5.82595 -4.00436,-7.65551 -0.40698,-0.47784 -0.34916,-1.3206 -0.39402,-1.94696 -3.31053,3.22477 -2.86552,6.43603 -1.88168,10.16798 l 0,0 0,0 0,0 0,0 0,0 0,-4e-5 0,0 0,0 0,0 0,0 0,0 0,0 0,0 0,0 -1e-5,-4e-5 0,0 0,0 0,0 0,0 0,0 0,0 0,0 0,0 z"
         style="fill:url(#radialGradient9456);fill-opacity:1;fill-rule:nonzero;stroke:url(#radialGradient9458);stroke-width:0.99999994;stroke-linecap:round;stroke-linejoin:round;stroke-opacity:1" />
      <path
         sodipodi:nodetypes="ccccc"
         id="path9414"
         d="m 308.45283,222.60977 c 0.005,0.28945 0.0526,0.54083 0.0262,0.83993 0.27225,1.59895 1.01585,0.56915 3.57345,2.88233 -1.8018,-2.95547 -2.98564,-3.40398 -3.59966,-3.72226 l 1e-5,0 z"
         style="fill:url(#radialGradient9453);fill-opacity:1;fill-rule:nonzero;stroke:none" />
      <path
         style="opacity:0.5;fill:none;stroke:url(#linearGradient9450);stroke-width:0.99999988;stroke-opacity:1"
         d="m 306.52145,231.52963 c -0.34918,-0.0274 -0.73523,-0.006 -1.12389,0.0768 -0.67009,0.14234 -1.2175,0.44501 -1.55685,0.79356 -0.33935,0.34854 -0.46986,0.72221 -0.36848,1.09218 0.10099,0.36866 0.42649,0.6769 0.92122,0.86179 0.49472,0.18491 1.14773,0.23556 1.81479,0.0939 0.64062,-0.13607 1.12265,-0.37838 1.44629,-0.69115 0.32366,-0.31278 0.49816,-0.7004 0.50667,-1.16898 0.003,-0.16387 -0.0823,-0.31902 -0.2303,-0.4693 -0.14801,-0.15029 -0.35093,-0.27449 -0.50668,-0.35837 -0.25124,-0.12621 -0.55399,-0.20308 -0.90277,-0.23038 z"
         id="path9416" />
      <path
         style="opacity:0.5;fill:url(#radialGradient9447);fill-opacity:1;stroke:none"
         d="m 305.90242,231.0296 c -0.21906,0.0149 -0.4426,0.0498 -0.66806,0.10014 -0.77859,0.17397 -1.41297,0.54251 -1.81917,0.98149 -0.40411,0.43665 -0.57793,0.93972 -0.45224,1.43217 0.0204,0.08 0.10471,0.13123 0.185,0.12019 0.97375,-0.11508 1.59363,-0.24281 2.02473,-0.38059 0.4311,-0.13778 0.67332,-0.28484 0.87361,-0.43065 0.20032,-0.1458 0.35205,-0.27969 0.63724,-0.41063 0.28517,-0.13092 0.71288,-0.26408 1.44917,-0.3906 0.1168,-0.021 0.17301,-0.1853 0.0924,-0.2704 -0.18546,-0.19814 -0.42521,-0.34802 -0.60639,-0.45069 -0.30476,-0.16106 -0.67191,-0.2569 -1.07915,-0.29045 -0.20362,-0.0167 -0.41819,-0.025 -0.63723,-0.0101 z"
         id="path9418"
         sodipodi:nodetypes="cssscssssscsc" />
      <path
         sodipodi:nodetypes="cccccccc"
         id="path9420"
         d="m 307.77393,230.9045 c 0.22031,-0.0596 0.72789,0.0797 0.9482,0.0201 -1.2634,-2.75788 -2.4221,-4.82171 -0.87533,-7.90458 -1.49522,2.90359 -0.73717,5.23294 -0.0729,7.88445 l 3e-5,0 0,3e-5 0,0 0,0 z"
         style="opacity:0.5;fill:url(#linearGradient9462);fill-opacity:1;stroke:none" />
      <path
         style="opacity:0.5;fill:url(#radialGradient9441);fill-opacity:1;fill-rule:nonzero;stroke:none"
         d="m 311.965,226.21593 c -2.37969,-3.68604 -3.09853,-2.90913 -3.29045,-4.52711 -0.13824,0.32332 -0.50753,0.43058 -1.12019,1.85457 0.74562,-0.89964 3.14351,0.97497 4.41064,2.67254 z"
         id="path9422"
         sodipodi:nodetypes="cccc" />
    </g>
    <g
       id="g9087">
      <path
         id="path9045"
         d="M 120.25 261.78125 C 112.47056 261.75243 105.45609 262.26654 99.71875 263.21875 C 90.539008 264.74229 84.612452 267.4297 84.34375 270.9375 C 84.075249 274.44273 89.429742 277.97955 98.1875 280.875 C 104.55872 282.98142 112.75028 284.75614 121.96875 286 L 187.25 286 C 186.6959 283.51625 185.6337 280.84591 183.875 277.90625 C 181.36986 274.01592 175.55073 270.66458 167.15625 268.03125 C 158.76177 265.39792 147.82133 263.49013 134.96875 262.4375 C 129.86022 262.01911 124.91766 261.79854 120.25 261.78125 z "
         style="opacity:0.29999999999999999;fill:url(#radialGradient9085);fill-opacity:1;fill-rule:nonzero;stroke:none;filter:url(#filter9047)" />
      <path
         sodipodi:nodetypes="cccssssssssscsssscscsscccc"
         id="path8100"
         d="m 154.28125,44 c -0.27049,0.05751 -0.51413,0.231533 -0.65625,0.46875 -50.63626,79.55892 -12.0215,125.32212 -11.46875,162.0625 -10.54826,-5.12836 -24.45983,-5.72493 -38.71875,-2.4375 -12.940552,2.98346 -23.727107,9.09296 -30.75,16.84375 -7.022893,7.75079 -10.274977,17.21062 -7.90625,26.59375 2.370468,9.39001 9.907404,16.5779 20,20.65625 10.092596,4.07835 22.76449,5.08037 35.71875,2.09375 12.22188,-2.81778 22.02708,-7.91961 28.84375,-14.96875 6.81667,-7.04914 10.60708,-16.0235 10.78125,-26.4375 1.6e-4,-0.0104 1.6e-4,-0.0208 0,-0.0312 -0.0105,-31.06413 -8.6811,-51.28669 -14.9375,-71.1875 -5.87665,-18.69285 -9.52895,-37.20563 -2.25,-64.5625 0.46142,2.13477 1.16396,4.058804 2.21875,5.65625 1.8951,2.87008 4.64695,4.88774 7.90625,6.5625 6.51859,3.34951 15.14071,5.35739 24.09375,9.46875 8.95304,4.11136 18.21143,10.28615 26.0625,22 7.85107,11.71385 14.28294,29.00193 17.3125,55.3125 0.0906,0.47818 0.5694,0.85014 1.05514,0.81978 0.48575,-0.0303 0.91446,-0.45904 0.94486,-0.94478 0.14624,-57.34332 -21.07504,-81.43659 -39.46875,-97.43755 -9.19686,-8.000479 -17.62861,-14.028765 -22.3125,-21.09375 -4.68389,-7.064985 -5.86978,-15.156423 -0.53125,-28.03125 0.23578,-0.607842 -0.33241,-1.403684 -0.9375,-1.375 L 154.46875,44 c -0.0623,-0.0058 -0.12518,-0.0058 -0.1875,0 z"
         style="fill:#d59600;fill-opacity:1;fill-rule:nonzero;stroke:none" />
      <path
         mask="url(#mask8879)"
         transform="matrix(1,0,0,0.9956635,0,0.18514625)"
         style="fill:url(#radialGradient9001);fill-opacity:1;fill-rule:nonzero;stroke:none;filter:url(#filter8873)"
         d="M 154.47423,44.990096 C 103.33525,125.33889 143.81384,170.3768 143.23089,208.11937 c -10.3929,-5.66655 -24.79215,-6.45317 -39.56003,-3.0484 -25.529878,5.88595 -42.484415,24.16995 -37.932048,42.20303 4.552366,18.03306 29.007615,27.91042 54.537488,22.02447 24.15419,-5.5688 38.4927,-20.09792 38.83324,-40.45978 -0.0208,-61.75256 -34.48623,-80.1443 -15.7432,-141.32884 -0.86265,36.66187 66.0009,-1.228741 78.17036,104.45824 C 221.82791,77.777698 137.61276,97.289397 159.28725,45.017439 l -4.81302,-0.02734 z"
         id="path9478"
         sodipodi:nodetypes="ccsssccccc" />
      <path
         style="opacity:0.5;fill:url(#radialGradient9041);fill-opacity:1;stroke:none"
         d="m 114.63278,203.12587 c -3.65268,0.2603 -7.3801,0.8628 -11.13963,1.73626 -12.98257,3.01628 -23.560423,9.40563 -30.334021,17.0154 -6.738349,7.57 -9.636522,16.29135 -7.540701,24.8286 0.340576,1.38717 1.74586,2.27496 3.08479,2.08352 16.237187,-1.99524 26.573266,-4.20937 33.761672,-6.59781 7.1884,-2.38845 11.22712,-4.93815 14.56717,-7.46594 3.34013,-2.5278 5.87027,-4.84886 10.6256,-7.11869 4.75533,-2.26983 11.88738,-4.57829 24.1644,-6.77144 1.94775,-0.36405 2.88499,-3.21273 1.54239,-4.68791 -3.09278,-3.43493 -7.09044,-6.03331 -10.1113,-7.8132 -5.08181,-2.79214 -11.20382,-4.45367 -17.99483,-5.03517 -3.3951,-0.29067 -6.97286,-0.43392 -10.62554,-0.17362 z"
         id="path9482"
         sodipodi:nodetypes="cssscssssscsc" />
      <path
         sodipodi:nodetypes="csssssscsccc"
         style="opacity:0.5;fill:none;stroke:url(#linearGradient9038);stroke-width:0.99999994;stroke-opacity:1"
         d="m 125.81548,203.70335 c -6.83266,-0.60902 -14.38672,-0.12838 -21.992,1.71093 -13.112473,3.17114 -24.073996,9.53911 -30.714374,17.30444 -6.64027,7.76534 -8.881557,15.90292 -6.710457,24.70803 2.02241,8.20208 8.345576,14.83096 18.026198,18.95028 9.68073,4.11932 22.208933,5.49783 35.261703,2.34111 12.53571,-3.03168 21.96801,-8.42984 28.30111,-15.39824 6.33315,-6.9684 9.74805,-15.60448 9.91447,-26.04394 0.0488,-3.65084 -1.61034,-7.10735 -4.50655,-10.45558 -2.89624,-3.34826 -6.86717,-6.11536 -9.91447,-7.98428 -4.91636,-2.81187 -10.84068,-4.52443 -17.66563,-5.13275 l 0,0 z"
         id="path9480" />
      <path
         id="path9484"
         d="m 154.46875,44.96875 c -0.005,0.0075 0.005,0.02372 0,0.03125 l 1.5,0.03125 c 0.01,-0.01123 0.0217,-0.02003 0.0312,-0.03125 l -1.53125,-0.03125 z m 0,0.03125 C 102.42487,126.26774 144.03891,172.53122 143.625,210.71875 l 5.21875,0 c 0.34696,-32.00813 -21.40704,-66.75452 -10.25,-115.40625 0.003,-0.04111 -0.003,-0.08386 0,-0.125 -0.0154,0.03393 -0.0158,0.0589 -0.0312,0.09375 0.54163,-6.302928 1.48839,-14.163492 4.1875,-23.4375 0.20983,-0.720978 0.42417,-1.449372 0.65625,-2.1875 0.24094,-0.787911 0.49032,-1.564537 0.75,-2.34375 0.38763,-1.163167 0.78828,-2.298718 1.21875,-3.4375 0.38175,-1.009896 0.77109,-2.013727 1.1875,-3 0.26599,-0.648955 0.55911,-1.308933 0.84375,-1.96875 1.89797,-4.399696 4.21559,-9.034104 7.0625,-13.90625 z"
         style="opacity:0.5;fill:url(#linearGradient9035);fill-opacity:1;stroke:none" />
      <path
         sodipodi:nodetypes="cccccc"
         id="path9486"
         d="m 153.26326,46.383026 c -12.59909,21.561839 -9.59458,30.138689 -10.59966,41.834744 -0.86265,36.66187 66.0009,-1.228741 78.17036,104.45824 C 221.12517,78.485618 136.64485,98.770715 158.31934,46.498757 l -5.05608,-0.115747 0,1.6e-5 z"
         style="fill:url(#radialGradient9032);fill-opacity:1;fill-rule:nonzero;stroke:none" />
      <path
         style="opacity:0.5;fill:url(#radialGradient9029);fill-opacity:1;fill-rule:nonzero;stroke:none"
         d="m 154.45342,44.99984 c -12.59909,21.561839 -14.88503,38.586565 -15.89011,50.28262 1.6484,-3.710704 2.84597,-2.150066 4.79018,-7.569121 33.68115,-6.501636 69.35554,50.961241 76.46439,75.362581 C 207.19826,80.792177 139.61459,92.424489 159.2571,45.053024 l -4.80368,-0.05318 0,-4e-6 z"
         id="path9488"
         sodipodi:nodetypes="ccccccc" />
      <path
         sodipodi:nodetypes="cc"
         id="path8886"
         d="M 155.39062,44.468749 C 109.59076,116.55223 135.89755,159.02501 140.53839,186.01028"
         style="opacity:0.5;fill:none;stroke:url(#linearGradient9026);stroke-width:1px;stroke-linecap:butt;stroke-linejoin:miter;stroke-opacity:1" />
      <path
         sodipodi:nodetypes="cc"
         id="path8896"
         d="m 146.32929,77.848674 c -11.0813,26.943246 17.75132,29.464486 23.95779,31.911226"
         style="opacity:0.5;fill:none;stroke:url(#linearGradient9023);stroke-width:1px;stroke-linecap:butt;stroke-linejoin:miter;stroke-opacity:1" />
      <path
         sodipodi:nodetypes="cc"
         id="path8912"
         d="m 158.56778,224.99514 c 0.27647,12.55506 -2.46953,31.36491 -32.92175,42.47174"
         style="opacity:0.5;fill:none;stroke:url(#linearGradient9020);stroke-width:1px;stroke-linecap:butt;stroke-linejoin:miter;stroke-opacity:1" />
    </g>
  </g>
</svg>
